<?xml version="1.0" encoding="utf-8"?>
<!-- Generator: Adobe Illustrator 24.2.3, SVG Export Plug-In . SVG Version: 6.00 Build 0)  -->
<svg version="1.1" id="Layer_1" xmlns="http://www.w3.org/2000/svg" xmlns:xlink="http://www.w3.org/1999/xlink" x="0px" y="0px"
	 viewBox="0 0 448 347.8" style="enable-background:new 0 0 448 347.8;" xml:space="preserve">
<path d="M5.8,205.7c10.6-0.1,21.2-1.1,31.8-1.7c2.6-0.1,5.1-0.4,7.7-0.6c0.9-0.1,1.7-0.8,1.6-1.8c-0.2-8.4-0.7-16.7-0.4-25.1
	c0.3-8,1.7-15.8,3.7-23.6c2-7.9,4.9-15.5,8.5-22.8c5.3-10.6,12.6-19.6,21-27.9c7.1-7.1,14.8-13.4,23.6-18.3
	c4.5-2.5,9.2-4.4,14.2-5.5c1.3-0.3,1.4-0.9,1.4-2c0.2-5.4,1.4-10.6,4.6-15c2.9-4.1,6.9-7.2,11.3-9.7c8.7-5.1,18.3-7.2,28.3-7.5
	c8.6-0.2,17,0.6,25.4,2.5c0.6,0.1,1.2-0.2,1.4-0.8c1.2-3.5,2.2-7,3.3-10.6c2.2-7,4.2-14,8.1-20.3C205.7,8.4,214,5,221.9,7.1
	c15.7,4.1,27.4,13.7,36.9,26.4c0.1,0.1,0.2,0.3,0.3,0.5c0.8,1.5,2,1.7,3.6,1.9c6.7,0.8,13.1,2.6,18.9,5.9c9,5.1,16.4,12.1,22.8,20.1
	c4.8,6,8.3,12.6,10.5,19.9c0.1,0.4,0.2,0.8,0.2,1.2c0.1,0.4,0.2,0.7,0.7,1.1c0.5-1.4,1-2.7,1.5-4.1c2.9-7.1,8-11.5,15.6-13.1
	c6.2-1.3,12-0.5,17.4,2.8c6.5,4,9.8,13.3,7.1,20.4c-2.7,7.1-8,11.3-14.9,13.8c-2.9,1.1-6,1.7-9.2,2.6c0.2,0.3,0.4,0.7,0.7,0.8
	c4.3,1,8.5,2.3,12.8,2.7c6,0.6,12,0.5,18,0.7c9.2,0.4,17.8,2.7,25.9,6.9c5.9,3,11,7,15.9,11.4c5.6,5,11,10.3,16.8,15.1
	c0,0,14.4,10.1,19.6,10.9s6.3,3.7,3,4c-7.2-0.9-12.8-3.2-19-7c-7.2-4.4-13.2-10.2-19.3-16c-5.5-5.2-11.1-10.1-17.7-13.8
	c-6.1-3.5-12.6-5.9-19.6-6.5c-8.1-0.7-16.2-0.8-24.2-1.4c-7.8-0.5-15.1-2.9-21.9-7c-2.1-1.2-4.9-1.3-7.4-1.8c-0.2,0-0.8,1.1-0.9,1.7
	c-0.8,3.2-1.3,6.4-2.2,9.5c-4.1,14.6-12,26.6-24.6,35.4c-6.6,4.6-13.8,7.9-21.3,10.4c-1.7,0.6-3.6,0.9-5.3,1.5
	c-0.5,0.2-1.1,0.7-1.2,1.2c-1.6,5.5-2.9,11-3.1,16.7c0,1.3,0.2,2.6,0.5,3.8c0.3,1.2,1.1,2.1,2.4,2.5c7.6,2.8,14.5,1.2,21.2-2.7
	c7.3-4.2,13.5-9.9,18.9-16.3c8-9.4,15.6-19.1,23.4-28.6c5.6-6.9,11.1-13.9,18-19.5c3.4-2.8,7.1-5.2,11.7-5.3
	c7.8-0.1,14.7,6.4,13.5,15.3c-0.7,5.5-2.7,10.5-5.4,15.3c-4.5,7.9-9.2,15.6-13.7,23.5c-2.9,5-5.5,10.1-8.3,15.2
	c-0.2,0.3-0.1,0.7-0.2,1.1c0.1,0.1,0.3,0.1,0.4,0.2c2.2-2.4,4.4-4.9,6.6-7.3c5.7-5.8,11.5-11.6,19-15.1c5.7-2.7,11.4-3.4,16.9,0.4
	c4.5,3.1,7.2,7.4,8.2,12.8c1.8,11-2.3,20.4-8.4,29c-3.7,5.2-8.4,9.5-14.2,12.4c-5.6,2.8-11.5,2.9-17.5,1.4
	c-5.3-1.3-9.9-3.7-13.6-7.8c-2.1-2.3-3.4-5.1-4.4-8c-0.1-0.2-0.2-0.5-0.4-1.1c-2,2.5-3.6,4.4-5.5,6.7c-2.6,3.1-5.1,6.2-7.6,9.3
	c-1.9,2.4-2,2.2,0,3.4c4.7,2.8,8,6.9,11.2,11.3c4.5,6.2,6.1,13.2,5.2,20.7c-0.6,5.2-2.5,10.1-4.9,14.7c-5.1,9.8-12.4,17.4-21.9,23.2
	c-8.8,5.3-18.2,7.3-28.3,6c-8.3-1.1-16.6-2.5-25-3.7c-0.7-0.1-1.7,0.5-2.2,1c-3.9,3.9-7.7,8-11.7,11.8
	c-11.1,10.5-22.7,20.2-36.3,27.4c-5.8,3.1-11.9,5.7-18.4,6.7c-10.4,1.6-20.7,1.1-29.8-4.9c-7.9-5.2-11-12.8-10.3-22.1
	c0.4-5.9,2.3-11.3,5.3-16.4c4.3-7.4,10.8-12.3,18.9-15.1c8.3-2.8,16.9-3.6,25.6-2.9c9,0.8,18.1,1.8,27,3.2c5.6,0.9,11.2,2,16.7,3.4
	c3.7,0.9,7.5,1.5,11.2,2.3c1.1,0.2,1.8-0.1,2.5-0.9c7.3-8.4,14.7-16.8,22-25.2c9.7-11.3,19.4-22.7,29.1-34c1.2-1.4,2.4-2.8,3.6-4.3
	c0.7-0.8,0.8-1.4-0.5-1.6c-7-1.4-14-1.5-21-0.5c-9.3,1.3-18.1,4.4-26.5,8.7c-11,5.6-22,11.3-33.2,16.6c-12.8,6.2-25.6,12.3-38.6,18
	c-9.9,4.3-20,8.3-30.2,11.9c-8.8,3.2-17.9,5.8-26.9,8.4c-6.3,1.8-12.7,3.2-19.1,4.4c-6.4,1.2-13,1.6-19.4-0.4
	c-6.9-2.2-11.5-6.9-13.3-13.9c-2.1-7.7,0.2-14.8,3.7-21.6c0.4-0.7,0.8-1.5,1.3-2.2c0.5-0.8,0.5-1.3-0.6-1.5
	c-6.4-1.4-12.4-3.7-18-7.2c-3.6-2.3-6.2-5.5-8.6-8.9c-4.7-6.7-7.9-14-9.8-22c-0.3-1.4-0.7-2.8-1-4.3c-0.2-1-0.7-1.3-1.8-1.2
	c-13,0.8-26,2-39.1,2.2c0,0-6.4,0.5-7.1-0.4c-0.8-0.9-1.8-3.8,1.2-3.9C4.2,205.6,5.8,205.7,5.8,205.7z M161.6,214.8
	c0.5,0.2,0.7,0.3,1,0.4c12.2,4,18.1,14.3,17.6,25.2c-0.3,7.1-3.2,13.3-7.8,18.6c-5.8,6.7-13,11-21.8,12.6c-6.2,1.1-12.2,0.6-17.9-2
	c-8.6-3.8-14.2-10.7-18.3-18.9c-0.6-1.3-1.3-1.3-2.4-0.9c-2.1,0.6-4.2,1.4-6.3,1.6c-4.2,0.5-8.5,0.5-12.7,0.9
	c-0.6,0.1-1.5,0.5-1.8,1c-2.8,4-5,8.4-6,13.2c-1.3,6.6-0.1,12.5,5.2,17.1c3.7,3.1,8.2,3.9,12.9,4c6.9,0.1,13.6-1.4,20.3-3.1
	c7.1-1.8,14.2-3.4,21.1-5.7c12.2-4.1,24.3-8.4,36.2-13.3c13-5.4,25.8-11.3,38.5-17.4c14.3-6.8,28.4-14.1,42.5-21.2
	c9.3-4.7,19-7.6,29.4-8.5c7-0.7,13.9-0.3,20.7,1.4c1.3,0.3,2.1,0.1,3-1c4.1-5.1,8.4-10.1,12.4-15.3c2.7-3.4,5.5-6.5,6.5-11.3
	c1.6-8.2,6.2-15.4,10.4-22.6c4.3-7.2,8.7-14.4,12.9-21.6c3.1-5.3,5.8-10.9,6.6-17.1c0.9-6.7-5.1-10.8-9.3-10.1
	c-2,0.3-4.1,1.3-5.8,2.3c-5.8,3.5-10.1,8.5-14.3,13.6c-8.3,10.1-16.3,20.4-24.6,30.5c-6.7,8.1-13.9,15.7-22.9,21.4
	c-7.6,4.9-15.7,7.2-24.8,5c-4.6-1.1-6.9-3.3-7.7-8c-0.9-4.8,0.3-9.5,1.1-14.2c0.3-1.8,0.8-3.6,1.3-5.7c-0.8,0.1-1.3,0.1-1.7,0.1
	c-5.2,0.6-10.5,1.4-15.7,1.7c-10.1,0.6-20.2,0-30.3-1.3c-0.7-0.1-1.7,0.3-2.1,0.8c-4.8,5.2-9.3,10.5-14.2,15.6
	c-9.9,10.3-19.9,20.4-29.8,30.7C162.4,213.9,162.1,214.3,161.6,214.8z M162.8,147.2c0.4,0.2,0.7,0.5,1,0.6c1.8,0.8,3.6,1.6,5.3,2.4
	c11.4,5.3,23.4,8.7,35.7,10.9c0.6,0.1,1.5-0.3,2-0.8c2.3-2.5,4.6-5.1,6.9-7.6c4.7-5.3,9.4-10.6,14.3-15.7
	c7.4-7.6,14.9-15.1,22.6-22.4c3.7-3.5,7.9-6.6,13.1-8c3.8-1,7.6,0.7,9.2,4.3c1.2,2.8,1.5,5.8,1,8.8c-0.9,5-1.8,10-3.1,15
	c-1.7,6.3-3.7,12.5-5.6,18.8c-0.6,1.9-1.1,3.8-1.8,6.1c1.7-0.5,3-0.7,4.3-1.2c9.2-3.1,17.7-7.5,25-14.2c6.7-6.2,11.8-13.5,15-22
	c2-5.3,3.5-10.7,4.4-16.4c0.2-1.2-0.2-1.6-1.3-2c-6.8-2.3-13.9-4.1-20.4-7.1c-10-4.7-19.7-10.2-29.5-15.4c-0.8-0.4-1.2-0.4-1.9,0.1
	c-5.1,3.9-10.8,6.1-17.2,6.5c-7.2,0.5-14.1-1.1-20.5-4.3c-6.3-3.1-10.6-8.1-12-15.1c-0.6-3.1-0.5-6.5-0.5-9.7c0-1-0.3-1.6-1.2-1.9
	c-4.4-1.4-8.8-2.7-13.2-4c-0.9-0.3-1.6-0.1-2,1c-2.5,6.1-4.9,12.3-7.9,18.1c-4.9,9.6-11.7,17.6-21,23.4c-1,0.6-1,1.2-0.3,2.2
	c3.5,5,5.8,10.5,6.8,16.6c1.3,8,0.5,15.7-2.5,23.1C166,140.7,164.3,143.9,162.8,147.2z M90.9,119.8c-0.7,0-1.5-0.1-2.2,0
	c-4.4,0.7-8.9,1.1-13.2,2.4c-6.3,1.8-9.7,6.7-11.5,12.8c-1.4,4.7-1.3,9.4,0.4,14c3,7.9,9,13.4,15.5,18.4c9,6.8,19.1,11.7,29.2,16.4
	c1.3,0.6,2.4,0.7,3.7-0.1c4.1-2.6,8.4-5,12.4-7.6c11-7.1,20.9-15.5,29.2-25.6c1.2-1.4,1.1-1.7-0.5-2.6c-6.2-3.5-12.4-7.2-18.6-10.7
	c-7.4-4.2-14.8-8.5-22.4-12.2C106.2,121.5,98.7,119.6,90.9,119.8z M197,284.7c0,0.2,0,0.3-0.1,0.5c-8.2-0.2-16.3,0.1-24.1,2.9
	c-5.4,1.9-10.1,5-13.6,9.5c-4.2,5.3-6.5,11.3-7.1,18.1c-0.5,5.5,0.7,10.4,4.4,14.5c3.8,4.4,8.8,6.5,14.4,7.5
	c7.1,1.3,14.3,1.1,21.2-1.1c8.8-2.7,16.9-7.2,24.3-12.8c6.7-5,13.1-10.3,19.4-15.8c4.6-4,8.8-8.5,13.1-12.8c0.7-0.7,1.2-1.4-0.3-1.8
	c-3.1-0.7-6.2-1.4-9.4-2c-6.3-1.2-12.5-2.5-18.8-3.5C212.7,286.7,204.9,285.7,197,284.7z M71.3,118.5c4.5-1,8.7-2.3,13-2.8
	c11-1.4,21.5,0.7,31.4,5.4c6,2.9,11.9,6.3,17.7,9.6c7.9,4.5,15.7,9.1,23.5,13.7c1.2,0.7,1.8,0.4,2.4-0.6c3.6-5.7,5.8-11.9,6.5-18.5
	c1-9.3-1.4-17.9-6.8-25.6c-0.6-0.8-1.2-1.1-2.3-0.6c-3.9,1.8-8.1,3.1-12.4,3.4c-5.8,0.4-11.2-0.9-16.1-4.2c-5-3.5-7.4-8.6-8.8-14.2
	c-0.3-1-0.6-1.3-1.6-1.1c-6.4,1.7-12.3,4.5-17.8,8.1c-10.4,6.9-19.1,15.8-27.2,25.2C72.4,116.9,71.9,117.8,71.3,118.5z M259.1,290.8
	c0.9,0.3,1.5,0.6,2.2,0.7c7,1,14,2.1,21,2.9c6.3,0.8,12.4,0.2,18.4-2.1c8-3.1,14.6-8.2,20.1-14.5c4.9-5.5,8.4-11.9,10.4-19
	c1.4-5.1,1.6-10.1-0.1-15.2c-2.1-6.2-6.4-10.9-11-15.2c-1.1-1-2.5-1.7-3.8-2.4c-0.4-0.2-1.3,0-1.6,0.3c-1.1,1.1-2.1,2.4-3.1,3.6
	c-4.5,5.3-8.9,10.7-13.4,16c-6,7-12,13.9-18,20.9c-4.2,4.8-8.3,9.5-12.5,14.3C264.8,284.2,262.1,287.3,259.1,290.8z M125,195.4
	c-0.3-0.2-0.4-0.4-0.6-0.5c-4.1-1.7-8.1-3.5-12.2-5.1c-0.5-0.2-1.3,0-1.9,0.3c-9.5,4.7-19.2,8.7-29.4,11.7c-6.7,2-13.5,3.6-20.5,4.5
	c-2.2,0.3-4.3,0.5-6.5,0.8c-0.8,0.1-1.7,0.3-1.4,1.5c1.7,7.9,4.4,15.4,8.8,22.2c3,4.7,6.5,9,11.7,11.3c4.1,1.8,8.3,3.3,12.5,4.7
	c3.5,1.1,3.9,0.8,6.1-2c0.5-0.7,1-1.3,1.5-2c4.4-5.6,9.1-10.8,14.7-15.2c2.1-1.7,4-3.2,4.7-6.3c1.3-6.4,4.1-12.3,7.5-17.9
	C121.6,200.8,123.2,198.2,125,195.4z M202.4,165.4c-3.5-0.8-6.5-1.5-9.4-2.3c-4.9-1.4-10-2.6-14.8-4.4c-5.8-2.1-11.4-4.7-17-7.2
	c-1.1-0.5-1.6-0.2-2.2,0.6c-2.6,3-5.1,6-7.8,8.8c-9.7,9.8-20.7,17.8-32.6,24.7c-0.5,0.3-1,0.7-1.9,1.3c3.5,1.4,6.7,2.6,9.8,4
	c1.1,0.5,1.8,0.4,2.6-0.6c3.1-3.8,6.4-7.3,10.7-9.8c5.8-3.4,11.9-3.8,18.2-2.8c4.3,0.7,8,2.6,10.7,6.1c4.5,6.1,4,14.7-4.9,17.7
	c-5.6,1.9-11.5,1.7-17.2,0.5c-5.3-1.2-10.5-2.9-15.7-4.5c-1.2-0.4-1.7-0.2-2.3,0.7c-3.9,5.7-7.3,11.6-9.9,18.1c-0.6,1.5-1,3.1-1.7,5
	c0.8-0.1,1.1-0.1,1.5-0.3c2.1-0.9,4.1-2,6.3-2.8c9.6-3.8,19.6-5.7,30-4.7c0.7,0.1,1.7-0.3,2.3-0.8c1.8-1.6,3.6-3.2,5.3-4.9
	c12.1-12.7,24.2-25.5,36.3-38.2C199.8,168.3,200.9,167,202.4,165.4z M167.2,48.8c-12.3-0.2-23.4,2.5-31.8,7.8
	c-7,4.5-11.6,10.3-12.1,18.8c-0.1,2.2-0.1,2.2,2,2.1c6.6-0.3,12.8,1.1,18.7,4c5.2,2.6,9.9,5.9,14,10c0.7,0.7,1.3,1.3,2.4,0.6
	c8.6-5.4,15.1-12.8,19.8-21.8c2.9-5.5,5-11.4,7.5-17.2c0.6-1.3,0.1-2-1.3-2.3C179.8,49.7,173.2,48.5,167.2,48.8z M117.8,247.7
	c1.9,4.3,4.3,7.9,7.3,11.1c7.4,7.9,16.4,10.6,26.8,8c8.7-2.2,15.4-7.3,20.1-15c3.4-5.5,4.8-11.5,3.1-17.9
	c-2.3-8.5-8.2-13.3-16.7-15.2c-0.5-0.1-1.3,0-1.7,0.4c-3.6,3.1-7.2,6.3-10.8,9.4c-7.3,6.2-15,11.9-23.4,16.6
	C121,245.9,119.5,246.8,117.8,247.7z M387.8,182.5c-0.2-3.3-0.7-6.7-2.6-9.6c-2.5-3.8-5.7-6.7-10.6-6.2c-2.4,0.2-4.8,1.1-7,2.2
	c-4.7,2.3-8.8,5.5-12.3,9.3c-5.6,5.8-10.8,12-16.3,18c-1.2,1.3-2.5,2.6-1.9,4.6c0.7,2.2,1.1,4.5,2.3,6.4c2.9,5,7.4,7.7,13,9.1
	c6.6,1.6,12.8,0.8,18.4-3.3c5.8-4.2,10.1-9.6,13.2-16.1C386.2,192.2,387.5,187.5,387.8,182.5z M263.3,40.5c0.3,0.9,0.4,1.3,0.6,1.6
	c2.1,4.3,3.7,8.8,4.4,13.5c1.1,7.4,0.2,14.3-4.3,20.5c-0.9,1.2-0.7,1.7,0.6,2.4c4.3,2.3,8.5,4.7,12.9,6.9c5.6,2.9,11.1,5.9,16.8,8.4
	c5.1,2.2,10.6,3.5,15.8,5.4c2.3,0.8,2.5,0.2,2.5-1.9c0-8.6-2-16.6-6.1-24.2c-3.8-7-8.9-12.9-14.7-18.2c-6.4-5.9-13.5-10.8-22-13.1
	C267.8,41.3,265.7,41,263.3,40.5z M211.4,162c1.3,0.3,2.2,0.6,3,0.6c7,0.3,14,0.9,21,0.7c7-0.2,14.1-1.3,21.1-2c1-0.1,1.6-0.6,2-1.7
	c1.5-5.1,3.1-10.2,4.7-15.2c2.6-8.1,5.2-16.1,6.1-24.6c0.2-2.2-0.1-4.5-0.5-6.7c-0.1-0.7-1-1.5-1.8-1.8c-2.1-1-4.2,0-5.8,1.1
	c-4.2,3-8.5,6-12.3,9.6c-12,11.2-22.8,23.5-33.7,35.8C214.1,159,212.9,160.3,211.4,162z M58.4,143.1c-0.1-0.1-0.2-0.1-0.3-0.2
	c-0.3,0.9-0.8,1.8-1,2.7c-1.7,6.6-3.8,13.1-4.9,19.8c-1.1,6.4-1.4,13.1-1.5,19.6c-0.1,5.4,0.4,10.9,0.6,16.3c0,0.7,0,1.7,1.2,1.5
	c3.2-0.4,6.4-0.5,9.5-1.2c6.1-1.3,12.2-2.8,18.3-4.4c8.4-2.3,16.4-5.7,24.2-9.3c0.3-0.1,0.7-0.5,0.6-0.6c-0.1-0.3-0.4-0.7-0.6-0.8
	c-1-0.5-2-1-3-1.4c-11.2-5.4-22.1-11.2-31.1-19.9c-4.4-4.2-8.2-8.9-10.1-14.8C59.5,148,59,145.5,58.4,143.1z M254.1,35.2
	c-0.4-0.8-0.5-1.2-0.7-1.5c-8.7-10.8-19.2-19.1-33-22.5c-4.9-1.2-9.4-0.7-13.1,3.4c-2.6,2.9-4.4,6.3-5.6,9.8
	c-2.6,7.4-4.9,14.9-7.3,22.3c-0.3,1-0.2,1.5,1,1.8c4.4,1.2,8.7,2.5,13,4c1.3,0.4,1.7,0,2.1-1c2.7-7.2,8.1-11.5,15.2-13.8
	c6.1-2,12.4-2.5,18.8-2.6C247.5,35.2,250.6,35.2,254.1,35.2z M264.4,60.7c-0.2-7.1-2.6-13.6-6.1-19.7c-0.5-1-1.3-1.4-2.5-1.4
	c-1.2,0.1-2.5,0-3.7-0.1c-7.9,0-15.7,0-23.4,2c-6.3,1.7-11.3,5-13.9,11.3c-0.5,1.3-0.6,1.8,1,2.5c6.5,2.6,13.1,5.2,19.4,8.2
	c7.5,3.5,14.9,7.4,22.4,11.1c1.2,0.6,2,0.4,2.7-0.6C263,70,264.5,65.6,264.4,60.7z M328.7,102.1c0,0.2,0,0.3-0.1,0.5
	c3.1-0.6,6.3-0.9,9.4-1.7c5-1.3,9.6-3.6,12.8-7.8c3.4-4.5,4.7-10.8,1.1-15.8c-2.7-3.7-6.5-5.7-10.9-6.2c-6.6-0.9-12.6,0.7-16.8,6.1
	c-4.9,6.3-5.5,13.5-2.2,20.8C323.2,100.5,324.6,103.4,328.7,102.1z M255.1,78.9c0-0.2-0.1-0.4-0.1-0.5
	c-13.5-7.3-27.3-13.8-41.8-19.2c-0.2,0.5-0.3,0.7-0.3,1c-0.8,8.4,2.1,15.5,10.1,19.5c7.9,3.9,16.3,5.3,24.9,2.6
	C250.5,81.5,252.8,80,255.1,78.9z M152.8,181.6c-1.3,0.1-2.7,0-4,0.2c-6.6,1.1-11.2,5.3-15.4,10.1c-0.7,0.8-0.7,1.5,0.5,2
	c6.7,2.6,13.6,4.2,20.8,4.5c3.2,0.1,6.4-0.3,9.3-1.8c1.8-1,2.9-2.4,2.9-4.5c0-3.3-1.4-5.8-4.1-7.7
	C159.8,182.3,156.4,181.6,152.8,181.6z M151.5,217.9c-0.8-0.2-1.2-0.3-1.6-0.3c-4.6,0.5-9.3,0.6-13.9,1.6c-6.5,1.4-12.7,4-18.5,7.3
	c-1.5,0.8-2.3,1.9-2.3,3.6c0.2,3.8,0.3,7.6,0.6,11.4c0.1,1.6,0.5,1.8,2,1c0.6-0.3,1.2-0.6,1.8-0.9c8.8-5,16.8-11,24.5-17.5
	C146.6,222.2,148.9,220.1,151.5,217.9z M128.3,82c-0.3,0-0.6,0-0.8,0c-3.9-0.2-4.1-0.1-2.8,3.6c1.2,3.6,3,6.8,6.2,9
	c7.4,5,15.1,4.1,22.9,1c1-0.4,1.1-1,0.2-1.8c-0.9-0.8-1.8-1.6-2.7-2.3C144.5,86.1,137.2,82.2,128.3,82z M95.2,247.6
	c0.5,0.2,0.7,0.3,0.9,0.3c3.3-0.3,6.7-0.6,10-1.1c1.6-0.2,3.3-0.8,4.8-1.4c0.4-0.2,0.9-0.9,0.9-1.4c-0.3-3.6-0.7-7.1-1-10.7
	c-0.1-0.6-0.1-1.2-0.2-2.3C104.6,236.1,99.6,241.4,95.2,247.6z"/>
</svg>
